<svg width="180" height="180" viewBox="0 0 180 180" fill="none" xmlns="http://www.w3.org/2000/svg">
  <defs>
    <linearGradient id="bgGrad" x1="0%" y1="0%" x2="100%" y2="100%">
      <stop offset="0%" stop-color="#1B3A6B"/>
      <stop offset="100%" stop-color="#00897B"/>
    </linearGradient>
    <linearGradient id="archG" x1="0%" y1="0%" x2="100%" y2="60%">
      <stop offset="0%" stop-color="#ffffff"/>
      <stop offset="100%" stop-color="#00BFA5"/>
    </linearGradient>
    <linearGradient id="personGrad" x1="0%" y1="0%" x2="0%" y2="100%">
      <stop offset="0%" stop-color="#ffffff"/>
      <stop offset="100%" stop-color="#bfdbfe"/>
    </linearGradient>
    <filter id="glow">
      <feGaussianBlur stdDeviation="3" result="coloredBlur"/>
      <feMerge><feMergeNode in="coloredBlur"/><feMergeNode in="SourceGraphic"/></feMerge>
    </filter>
  </defs>
  <rect width="180" height="180" rx="36" fill="url(#bgGrad)"/>
  <g transform="translate(90, 86)">
    <circle cx="-36" cy="0" r="11" fill="url(#personGrad)"/>
    <path d="M -46 13 Q -48 28 -46 42 L -26 42 Q -24 28 -26 13 Z" fill="url(#personGrad)"/>
    <path d="M -26 21 Q -17 17 -8 15" stroke="url(#personGrad)" stroke-width="5" stroke-linecap="round" fill="none"/>
    <circle cx="-8" cy="15" r="4" fill="#00BFA5"/>
    <circle cx="36" cy="0" r="11" fill="url(#personGrad)"/>
    <path d="M 26 13 Q 24 28 26 42 L 46 42 Q 48 28 46 13 Z" fill="url(#personGrad)"/>
    <path d="M 26 21 Q 17 17 8 15" stroke="url(#personGrad)" stroke-width="5" stroke-linecap="round" fill="none"/>
    <circle cx="8" cy="15" r="4" fill="#00BFA5"/>
    <path d="M -32 15 Q 0 -36 32 15" stroke="url(#archG)" stroke-width="5.5" stroke-linecap="round" fill="none" filter="url(#glow)"/>
    <circle cx="0" cy="-22" r="6.5" fill="white"/>
    <circle cx="0" cy="-22" r="3.5" fill="#00BFA5"/>
    <line x1="-48" y1="47" x2="48" y2="47" stroke="rgba(255,255,255,0.6)" stroke-width="3.5" stroke-linecap="round"/>
  </g>
</svg>
