<svg width="200" height="200" viewBox="0 0 200 200" fill="none" xmlns="http://www.w3.org/2000/svg">
  <defs>
    <linearGradient id="bgGrad" x1="0%" y1="0%" x2="100%" y2="100%">
      <stop offset="0%" stop-color="#1B3A6B"/>
      <stop offset="100%" stop-color="#00897B"/>
    </linearGradient>
    <linearGradient id="archG" x1="0%" y1="0%" x2="100%" y2="60%">
      <stop offset="0%" stop-color="#ffffff"/>
      <stop offset="100%" stop-color="#00BFA5"/>
    </linearGradient>
    <linearGradient id="personGrad" x1="0%" y1="0%" x2="0%" y2="100%">
      <stop offset="0%" stop-color="#ffffff"/>
      <stop offset="100%" stop-color="#bfdbfe"/>
    </linearGradient>
    <filter id="glow">
      <feGaussianBlur stdDeviation="4" result="coloredBlur"/>
      <feMerge><feMergeNode in="coloredBlur"/><feMergeNode in="SourceGraphic"/></feMerge>
    </filter>
  </defs>
  <rect width="200" height="200" rx="40" fill="url(#bgGrad)"/>
  <g transform="translate(100, 95)">
    <circle cx="-44" cy="0" r="13" fill="url(#personGrad)"/>
    <path d="M -56 16 Q -58 34 -56 50 L -32 50 Q -30 34 -32 16 Z" fill="url(#personGrad)"/>
    <path d="M -32 26 Q -20 21 -10 19" stroke="url(#personGrad)" stroke-width="6" stroke-linecap="round" fill="none"/>
    <circle cx="-10" cy="19" r="5" fill="#00BFA5"/>
    <circle cx="44" cy="0" r="13" fill="url(#personGrad)"/>
    <path d="M 32 16 Q 30 34 32 50 L 56 50 Q 58 34 56 16 Z" fill="url(#personGrad)"/>
    <path d="M 32 26 Q 20 21 10 19" stroke="url(#personGrad)" stroke-width="6" stroke-linecap="round" fill="none"/>
    <circle cx="10" cy="19" r="5" fill="#00BFA5"/>
    <path d="M -40 19 Q 0 -44 40 19" stroke="url(#archG)" stroke-width="6.5" stroke-linecap="round" fill="none" filter="url(#glow)"/>
    <circle cx="0" cy="-28" r="8" fill="white"/>
    <circle cx="0" cy="-28" r="4" fill="#00BFA5"/>
    <line x1="-58" y1="56" x2="58" y2="56" stroke="rgba(255,255,255,0.6)" stroke-width="4" stroke-linecap="round"/>
  </g>
</svg>
