<svg width="480" height="80" viewBox="0 0 480 80" fill="none" xmlns="http://www.w3.org/2000/svg">
  <rect width="480" height="80" rx="12" fill="#060c1a"/>
  <defs>
    <linearGradient id="archG" x1="0%" y1="0%" x2="100%" y2="60%">
      <stop offset="0%" stop-color="#00897B"/>
      <stop offset="100%" stop-color="#00BFA5"/>
    </linearGradient>
    <linearGradient id="personGrad" x1="0%" y1="0%" x2="0%" y2="100%">
      <stop offset="0%" stop-color="#60a5fa"/>
      <stop offset="100%" stop-color="#93c5fd"/>
    </linearGradient>
    <filter id="glow">
      <feGaussianBlur stdDeviation="2" result="coloredBlur"/>
      <feMerge><feMergeNode in="coloredBlur"/><feMergeNode in="SourceGraphic"/></feMerge>
    </filter>
  </defs>
  <g transform="translate(44, 38)">
    <circle cx="-18" cy="0" r="5.5" fill="url(#personGrad)"/>
    <path d="M -23 6 Q -25 14 -23 21 L -13 21 Q -11 14 -13 6 Z" fill="url(#personGrad)"/>
    <path d="M -13 10 Q -8 8 -4 7" stroke="url(#personGrad)" stroke-width="2.5" stroke-linecap="round" fill="none"/>
    <circle cx="-4" cy="7" r="2" fill="#00BFA5"/>
    <circle cx="18" cy="0" r="5.5" fill="url(#personGrad)"/>
    <path d="M 13 6 Q 11 14 13 21 L 23 21 Q 25 14 23 6 Z" fill="url(#personGrad)"/>
    <path d="M 13 10 Q 8 8 4 7" stroke="url(#personGrad)" stroke-width="2.5" stroke-linecap="round" fill="none"/>
    <circle cx="4" cy="7" r="2" fill="#00BFA5"/>
    <path d="M -15 7 Q 0 -17 15 7" stroke="url(#archG)" stroke-width="2.5" stroke-linecap="round" fill="none" filter="url(#glow)"/>
    <circle cx="0" cy="-10" r="3" fill="#00BFA5"/>
    <circle cx="0" cy="-10" r="1.5" fill="white"/>
    <line x1="-22" y1="23" x2="22" y2="23" stroke="#00897B" stroke-width="1.8" stroke-linecap="round"/>
  </g>
  <!-- Wordmark text -->
  <text x="84" y="34" font-family="'Plus Jakarta Sans','Helvetica Neue',Arial,sans-serif" font-weight="800" font-size="24" fill="#bfdbfe" letter-spacing="-0.5">INSURA</text>
  <text x="85" y="56" font-family="'Plus Jakarta Sans','Helvetica Neue',Arial,sans-serif" font-weight="300" font-size="20" fill="#2dd4bf" letter-spacing="3.5">BRIDGE</text>
</svg>
